<?xml version="1.0" encoding="utf-8"?>
<!-- Generator: Adobe Illustrator 24.3.0, SVG Export Plug-In . SVG Version: 6.00 Build 0)  -->
<svg version="1.1" id="Layer_1" xmlns="http://www.w3.org/2000/svg" xmlns:xlink="http://www.w3.org/1999/xlink" x="0px" y="0px"
	 viewBox="0 0 102.6 51.3" style="enable-background:new 0 0 102.6 51.3;" xml:space="preserve">
<style type="text/css">
	.st0{fill:#FFFFFF;}
</style>
<g>
	<g>
		<path class="st0" d="M59.1,35.2c0,0.2,0.1,0.3,0.2,0.3c0.1,0,0.2,0,0.2-0.1L91,14.9c0.6-0.4,1.1-0.6,1.8-0.6h6.9
			c1.1,0,1.8,0.7,1.8,1.8v13.2c0,1.6-0.4,2.5-1.8,3.4l-8.4,5c-0.1,0.1-0.2,0.1-0.3,0.1c-0.1,0-0.2-0.1-0.2-0.4V22
			c0-0.2-0.1-0.3-0.2-0.3s-0.2,0-0.2,0.1l-23,15c-0.6,0.4-1.2,0.5-1.8,0.5H50.4c-1.1,0-1.8-0.7-1.8-1.8v-19c0-0.1-0.1-0.3-0.2-0.3
			c-0.1,0-0.2,0-0.2,0.1L33,25.5c-0.2,0.1-0.2,0.2-0.2,0.2c0,0.1,0,0.1,0.1,0.2l10.8,10.8c0.1,0.1,0.2,0.3,0.2,0.4
			c0,0.1-0.2,0.2-0.3,0.2h-9.8c-0.8,0-1.4-0.1-1.8-0.5l-6.6-6.6c-0.1-0.1-0.1-0.1-0.2-0.1s-0.1,0-0.2,0.1l-11,6.6
			c-0.7,0.4-1.1,0.5-1.8,0.5H2.3c-1.1,0-1.8-0.7-1.8-1.8v-13c0-1.6,0.4-2.5,1.8-3.4l8.4-5.1c0.1-0.1,0.2-0.1,0.2-0.1
			c0.1,0,0.2,0.1,0.2,0.4v17.3c0,0.2,0.1,0.3,0.2,0.3c0.1,0,0.2,0,0.3-0.1l28.5-17.2c0.7-0.4,1.1-0.5,1.9-0.5h15.4
			c1.1,0,1.8,0.7,1.8,1.8v19.3H59.1z"/>
	</g>
</g>
</svg>
